<svg xmlns="http://www.w3.org/2000/svg" width="800" height="300"><path d="M16.12 198.96L15.48 186.89L23.36 184.61L23.36 153.75L23.36 153.75Q23.36 150.95 22.98 150.13L22.98 150.13L22.98 150.13Q22.60 149.30 20.95 148.29L20.95 148.29L15.36 145.24L15.74 135.71L19.17 135.08L19.17 135.08Q34.79 131.90 42.28 131.65L42.28 131.65L42.28 131.65Q43.30 134.32 43.93 137.11L43.93 137.11L43.93 137.11Q50.79 133.93 55.68 132.60L55.68 132.60L55.68 132.60Q60.57 131.27 64.63 131.27L64.63 131.27L64.63 131.27Q69.59 131.27 73.90 133.11L73.90 133.11L73.90 133.11Q78.22 134.95 80.38 138.00L80.38 138.00L80.38 138.00Q87.62 134.44 93.40 132.86L93.40 132.86L93.40 132.86Q99.18 131.27 104.38 131.27L104.38 131.27L104.38 131.27Q114.80 131.27 119.75 137.24L119.75 137.24L119.75 137.24Q124.70 143.21 124.70 155.40L124.70 155.40L124.70 180.42L124.70 180.42Q124.70 183.08 125.09 183.97L125.09 183.97L125.09 183.97Q125.47 184.86 127.24 185.88L127.24 185.88L133.34 189.43L132.83 198.96L98.29 198.96L97.65 186.89L103.75 185.12L103.75 161.11L103.75 161.11Q103.75 155.65 103.43 153.30L103.43 153.30L103.43 153.30Q103.11 150.95 101.34 149.62L101.34 149.62L101.34 149.62Q99.56 148.29 95.37 148.29L95.37 148.29L95.37 148.29Q92.07 148.29 84.32 149.43L84.32 149.43L84.32 149.43Q84.57 151.46 84.57 155.40L84.57 155.40L84.57 180.42L84.57 180.42Q84.57 183.08 84.95 183.97L84.95 183.97L84.95 183.97Q85.33 184.86 87.24 185.88L87.24 185.88L93.46 189.43L92.95 198.96L58.16 198.96L57.52 186.89L63.62 185.12L63.62 161.11L63.62 161.11Q63.62 155.52 63.30 153.18L63.30 153.18L63.30 153.18Q62.98 150.83 61.20 149.56L61.20 149.56L61.20 149.56Q59.43 148.29 55.36 148.29L55.36 148.29L55.36 148.29Q50.92 148.29 44.57 149.43L44.57 149.43L44.57 180.42L44.57 180.42Q44.57 183.08 44.95 183.97L44.95 183.97L44.95 183.97Q45.33 184.86 46.98 185.88L46.98 185.88L53.20 189.43L52.70 198.96L16.12 198.96ZM160.77 200.74L160.77 200.74Q150.61 200.74 145.66 194.70L145.66 194.70L145.66 194.70Q140.71 188.67 140.71 176.48L140.71 176.48L140.71 153.75L140.71 153.75Q140.71 150.95 140.26 150.13L140.26 150.13L140.26 150.13Q139.82 149.30 138.04 148.29L138.04 148.29L132.32 145.24L132.96 135.71L132.96 135.71Q134.74 135.46 135.50 135.20L135.50 135.20L135.50 135.20Q136.90 134.95 145.47 133.43L145.47 133.43L145.47 133.43Q154.04 131.90 159.76 131.65L159.76 131.65L159.76 131.65Q161.15 134.82 161.92 139.01L161.92 139.01L161.92 171.02L161.92 171.02Q161.92 176.61 162.23 178.89L162.23 178.89L162.23 178.89Q162.55 181.18 164.26 182.39L164.26 182.39L164.26 182.39Q165.98 183.59 170.17 183.59L170.17 183.59L170.17 183.59Q176.27 183.59 181.98 181.43L181.98 181.43L181.98 153.75L181.98 153.75Q181.98 150.95 181.60 150.13L181.60 150.13L181.60 150.13Q181.22 149.30 179.57 148.29L179.57 148.29L173.98 145.24L174.49 135.71L174.49 135.71Q184.78 133.81 190.55 132.79L190.55 132.79L190.55 132.79Q196.33 131.78 201.16 131.65L201.16 131.65L201.16 131.65Q202.56 134.82 203.32 139.01L203.32 139.01L203.32 180.67L203.32 180.67Q203.32 182.96 203.70 183.85L203.70 183.85L203.70 183.85Q204.08 184.73 205.48 185.62L205.48 185.62L210.56 188.54L210.18 196.42L210.18 196.42Q204.71 197.82 197.60 198.90L197.60 198.90L197.60 198.90Q190.49 199.97 184.39 200.23L184.39 200.23L184.39 200.23Q183.89 198.70 183.25 196.42L183.25 196.42L183.25 196.42Q183.12 195.40 182.62 194.01L182.62 194.01L182.24 194.01L182.24 194.01Q177.03 197.05 171.25 198.90L171.25 198.90L171.25 198.90Q165.47 200.74 160.77 200.74L160.77 200.74ZM214.62 198.96L214.24 187.27L223.13 184.61L223.13 123.77L223.13 123.77Q223.13 120.98 222.68 120.16L222.68 120.16L222.68 120.16Q222.24 119.33 220.46 118.31L220.46 118.31L214.87 115.39L215.51 105.74L215.51 105.74Q218.05 105.23 219.45 105.11L219.45 105.11L219.45 105.11Q236.21 102.06 242.81 101.80L242.81 101.80L242.81 101.80Q244.08 104.72 244.47 108.41L244.47 108.41L244.47 180.42L244.47 180.42Q244.47 183.08 244.85 183.97L244.85 183.97L244.85 183.97Q245.23 184.86 247.00 185.88L247.00 185.88L253.23 189.43L252.72 198.96L214.62 198.96ZM284.60 200.61L284.60 200.61Q273.42 200.61 268.09 195.09L268.09 195.09L268.09 195.09Q262.75 189.56 262.75 178.26L262.75 178.26L262.75 147.40L253.86 147.40L253.86 138.13L276.72 117.30L284.09 118.19L284.09 132.54L305.42 132.54L305.42 147.52L284.09 147.52L284.09 173.69L284.09 173.69Q284.09 179.78 285.80 181.81L285.80 181.81L285.80 181.81Q287.52 183.85 292.47 183.85L292.47 183.85L292.47 183.85Q296.66 183.85 304.15 182.70L304.15 182.70L305.68 195.66L305.68 195.66Q301.11 197.82 295.46 199.21L295.46 199.21L295.46 199.21Q289.80 200.61 284.60 200.61L284.60 200.61ZM323.08 124.41L317.74 104.98L339.33 99.26L344.54 118.57L323.08 124.41ZM312.79 198.96L312.41 187.27L321.30 184.61L321.30 153.75L321.30 153.75Q321.30 150.95 320.86 150.13L320.86 150.13L320.86 150.13Q320.41 149.30 318.63 148.29L318.63 148.29L313.04 145.24L313.68 135.71L313.68 135.71Q324.22 133.68 330.00 132.73L330.00 132.73L330.00 132.73Q335.78 131.78 340.60 131.65L340.60 131.65L340.60 131.65Q342.25 137.11 342.64 139.78L342.64 139.78L342.64 180.42L342.64 180.42Q342.64 183.08 343.02 183.97L343.02 183.97L343.02 183.97Q343.40 184.86 345.18 185.88L345.18 185.88L351.40 189.43L350.89 198.96L312.79 198.96Z" fill="#FF2E2E"/><path d="M356.78 198.96L356.40 187.27L365.29 184.61L365.29 147.40L356.40 147.27L356.40 134.82L365.29 134.32L365.29 126.06L365.29 126.06Q365.29 114.50 372.02 108.15L372.02 108.15L372.02 108.15Q378.75 101.80 391.58 101.80L391.58 101.80L391.58 101.80Q398.18 101.80 407.58 103.45L407.58 103.45L404.66 120.73L404.66 120.73Q399.07 119.20 394.94 118.63L394.94 118.63L394.94 118.63Q390.82 118.06 386.63 118.19L386.63 118.19L386.63 133.17L401.10 132.28L401.10 147.90L386.63 147.65L386.63 180.42L386.63 180.42Q386.63 183.08 387.01 183.97L387.01 183.97L387.01 183.97Q387.39 184.86 389.16 185.88L389.16 185.88L397.04 190.20L396.66 198.96L356.78 198.96ZM436.92 200.48L436.92 200.48Q422.06 200.48 413.99 191.47L413.99 191.47L413.99 191.47Q405.93 182.45 405.93 166.57L405.93 166.57L405.93 166.57Q405.93 155.52 409.87 147.59L409.87 147.59L409.87 147.59Q413.80 139.65 421.04 135.46L421.04 135.46L421.04 135.46Q428.28 131.27 437.93 131.27L437.93 131.27L437.93 131.27Q452.28 131.27 459.97 140.41L459.97 140.41L459.97 140.41Q467.65 149.56 467.27 166.45L467.27 166.45L428.66 173.56L428.66 173.56Q430.44 178.89 433.68 181.37L433.68 181.37L433.68 181.37Q436.92 183.85 442.25 183.85L442.25 183.85L442.25 183.85Q445.93 183.85 451.01 182.77L451.01 182.77L451.01 182.77Q456.09 181.69 461.30 179.78L461.30 179.78L464.22 192.35L464.22 192.35Q459.52 195.91 452.03 198.20L452.03 198.20L452.03 198.20Q444.54 200.48 436.92 200.48L436.92 200.48ZM427.39 160.99L446.44 155.78L446.44 155.78Q446.19 150.95 443.71 148.73L443.71 148.73L443.71 148.73Q441.24 146.51 436.79 146.51L436.79 146.51L436.79 146.51Q433.11 146.51 429.81 147.52L429.81 147.52L429.81 147.52Q427.14 153.75 427.39 160.99L427.39 160.99ZM502.20 200.61L502.20 200.61Q491.02 200.61 485.69 195.09L485.69 195.09L485.69 195.09Q480.35 189.56 480.35 178.26L480.35 178.26L480.35 147.40L471.46 147.40L471.46 138.13L494.32 117.30L501.69 118.19L501.69 132.54L523.02 132.54L523.02 147.52L501.69 147.52L501.69 173.69L501.69 173.69Q501.69 179.78 503.40 181.81L503.40 181.81L503.40 181.81Q505.12 183.85 510.07 183.85L510.07 183.85L510.07 183.85Q514.26 183.85 521.75 182.70L521.75 182.70L523.28 195.66L523.28 195.66Q518.71 197.82 513.05 199.21L513.05 199.21L513.05 199.21Q507.40 200.61 502.20 200.61L502.20 200.61ZM559.73 200.61L559.73 200.61Q544.99 200.61 536.87 191.53L536.87 191.53L536.87 191.53Q528.74 182.45 528.74 166.45L528.74 166.45L528.74 166.45Q528.74 149.81 537.44 140.54L537.44 140.54L537.44 140.54Q546.14 131.27 561.25 131.27L561.25 131.27L561.25 131.27Q572.68 131.27 585.76 136.47L585.76 136.47L585.76 136.47Q585.51 140.16 584.62 146.19L584.62 146.19L584.62 146.19Q583.73 152.22 582.71 157.30L582.71 157.30L574.20 158.06L566.33 148.03L566.33 148.03Q563.16 147.40 559.22 147.40L559.22 147.40L559.22 147.40Q556.04 147.40 553.38 147.78L553.38 147.78L553.38 147.78Q550.46 153.37 550.46 163.53L550.46 163.53L550.46 163.53Q550.46 173.94 554.14 178.96L554.14 178.96L554.14 178.96Q557.82 183.97 565.31 183.97L565.31 183.97L565.31 183.97Q568.87 183.97 573.95 182.89L573.95 182.89L573.95 182.89Q579.03 181.81 584.36 179.78L584.36 179.78L587.41 192.48L587.41 192.48Q582.33 196.04 574.78 198.32L574.78 198.32L574.78 198.32Q567.22 200.61 559.73 200.61L559.73 200.61ZM593.25 198.96L592.62 186.89L600.49 184.61L600.49 123.77L600.49 123.77Q600.49 120.98 600.11 120.16L600.11 120.16L600.11 120.16Q599.73 119.33 598.08 118.31L598.08 118.31L592.49 115.39L592.87 105.74L596.81 105.11L596.81 105.11Q613.57 102.06 620.31 101.80L620.31 101.80L620.31 101.80Q621.45 104.85 621.96 108.41L621.96 108.41L621.96 137.36L621.96 137.36Q628.94 134.19 633.83 132.73L633.83 132.73L633.83 132.73Q638.72 131.27 643.55 131.27L643.55 131.27L643.55 131.27Q663.36 131.27 663.36 155.40L663.36 155.40L663.36 180.42L663.36 180.42Q663.36 183.08 663.74 183.97L663.74 183.97L663.74 183.97Q664.12 184.86 665.90 185.88L665.90 185.88L671.99 189.43L671.49 198.96L636.43 198.96L635.80 186.89L642.02 185.12L642.02 160.99L642.02 160.99Q642.02 155.40 641.70 153.05L641.70 153.05L641.70 153.05Q641.39 150.70 639.61 149.43L639.61 149.43L639.61 149.43Q637.83 148.16 633.64 148.16L633.64 148.16L633.64 148.16Q629.58 148.16 621.96 149.56L621.96 149.56L621.96 180.42L621.96 180.42Q621.96 183.08 622.34 183.97L622.34 183.97L622.34 183.97Q622.72 184.86 624.37 185.88L624.37 185.88L630.59 189.43L630.08 198.96L593.25 198.96ZM706.03 200.48L706.03 200.48Q691.17 200.48 683.11 191.47L683.11 191.47L683.11 191.47Q675.04 182.45 675.04 166.57L675.04 166.57L675.04 166.57Q675.04 155.52 678.98 147.59L678.98 147.59L678.98 147.59Q682.92 139.65 690.16 135.46L690.16 135.46L690.16 135.46Q697.39 131.27 707.05 131.27L707.05 131.27L707.05 131.27Q721.40 131.27 729.08 140.41L729.08 140.41L729.08 140.41Q736.76 149.56 736.38 166.45L736.38 166.45L697.78 173.56L697.78 173.56Q699.55 178.89 702.79 181.37L702.79 181.37L702.79 181.37Q706.03 183.85 711.36 183.85L711.36 183.85L711.36 183.85Q715.05 183.85 720.13 182.77L720.13 182.77L720.13 182.77Q725.21 181.69 730.41 179.78L730.41 179.78L733.34 192.35L733.34 192.35Q728.64 195.91 721.14 198.20L721.14 198.20L721.14 198.20Q713.65 200.48 706.03 200.48L706.03 200.48ZM696.51 160.99L715.56 155.78L715.56 155.78Q715.30 150.95 712.82 148.73L712.82 148.73L712.82 148.73Q710.35 146.51 705.90 146.51L705.90 146.51L705.90 146.51Q702.22 146.51 698.92 147.52L698.92 147.52L698.92 147.52Q696.25 153.75 696.51 160.99L696.51 160.99ZM742.73 198.96L742.10 186.89L749.85 184.61L749.85 153.75L749.85 153.75Q749.85 150.95 749.46 150.13L749.46 150.13L749.46 150.13Q749.08 149.30 747.43 148.29L747.43 148.29L741.84 145.24L742.23 135.71L742.23 135.71Q744.38 135.20 745.91 135.08L745.91 135.08L745.91 135.08Q761.28 131.90 768.64 131.65L768.64 131.65L768.64 131.65Q769.78 134.95 770.80 139.90L770.80 139.90L770.80 139.90Q778.42 133.93 783.75 131.65L783.75 131.65L790.99 131.65L790.99 131.65Q790.87 136.47 790.36 142.13L790.36 142.13L790.36 142.13Q789.85 147.78 789.09 151.21L789.09 151.21L789.09 151.21Q784.52 150.95 782.36 150.95L782.36 150.95L782.36 150.95Q777.02 150.95 771.31 151.59L771.31 151.59L771.31 180.42L771.31 180.42Q771.31 183.08 771.69 183.97L771.69 183.97L771.69 183.97Q772.07 184.86 773.72 185.88L773.72 185.88L781.34 189.94L780.83 198.96L742.73 198.96Z" fill="#616F67"/></svg>